<?xml version="1.0" encoding="utf-8"?>
<!-- Generator: Adobe Illustrator 16.0.0, SVG Export Plug-In . SVG Version: 6.00 Build 0)  -->
<!DOCTYPE svg PUBLIC "-//W3C//DTD SVG 1.1//EN" "http://www.w3.org/Graphics/SVG/1.1/DTD/svg11.dtd">
<svg version="1.1" id="Layer_1" xmlns="http://www.w3.org/2000/svg" xmlns:xlink="http://www.w3.org/1999/xlink" x="0px" y="0px"
	 width="20px" height="20px" viewBox="0 0 20 20" enable-background="new 0 0 20 20" xml:space="preserve">
<g id="rect719">
	<path opacity="0.0894" fill="#818181" d="M2.331,1h15.453c0.709,0,1.285,0.576,1.285,1.287v15.449c0,0.712-0.576,1.288-1.285,1.288
		H2.331c-0.709,0-1.287-0.576-1.287-1.288V2.287C1.043,1.576,1.621,1,2.331,1z"/>
	<path fill="none" stroke="#010101" stroke-width="0.3808" stroke-linejoin="round" d="M2.331,1h15.453
		c0.709,0,1.285,0.576,1.285,1.287v15.449c0,0.712-0.576,1.288-1.285,1.288H2.331c-0.709,0-1.287-0.576-1.287-1.288V2.287
		C1.043,1.576,1.621,1,2.331,1z"/>
</g>
<g>
	<line fill="none" stroke="#000000" stroke-width="1.8" stroke-miterlimit="10" x1="6.996" y1="9.444" x2="13.671" y2="9.444"/>
	<g>
		<polygon points="7.927,12.467 2.417,9.444 7.927,6.42 		"/>
	</g>
</g>
</svg>
