<?xml version="1.0" encoding="utf-8"?>
<!-- Generator: Adobe Illustrator 16.0.0, SVG Export Plug-In . SVG Version: 6.00 Build 0)  -->
<!DOCTYPE svg PUBLIC "-//W3C//DTD SVG 1.1//EN" "http://www.w3.org/Graphics/SVG/1.1/DTD/svg11.dtd">
<svg version="1.1" id="Layer_1" xmlns="http://www.w3.org/2000/svg" xmlns:xlink="http://www.w3.org/1999/xlink" x="0px" y="0px"
	 width="20px" height="20px" viewBox="0 0 20 20" enable-background="new 0 0 20 20" xml:space="preserve">
<g id="rect719">
	<path opacity="0.0894" fill="#818181" d="M19.068,2.287v15.449c0,0.712-0.578,1.288-1.287,1.288H2.328
		c-0.709,0-1.285-0.576-1.285-1.288V2.287C1.043,1.576,1.619,1,2.328,1h15.453C18.49,1,19.068,1.576,19.068,2.287z"/>
	<path fill="none" stroke="#010101" stroke-width="0.3808" stroke-linejoin="round" d="M19.068,2.287v15.449
		c0,0.712-0.578,1.288-1.287,1.288H2.328c-0.709,0-1.285-0.576-1.285-1.288V2.287C1.043,1.576,1.619,1,2.328,1h15.453
		C18.49,1,19.068,1.576,19.068,2.287z"/>
</g>
<g>
	<line fill="none" stroke="#000000" stroke-width="1.8" stroke-miterlimit="10" x1="13.115" y1="9.444" x2="6.44" y2="9.444"/>
	<g>
		<polygon points="12.184,12.467 17.694,9.444 12.184,6.42 		"/>
	</g>
</g>
</svg>
